<svg width="543" height="153" viewBox="0 0 543 153" fill="none" xmlns="http://www.w3.org/2000/svg">
<path d="M215.752 103.672C216.392 102.264 217.16 100.451 218.056 98.232C218.952 96.0133 219.891 93.624 220.872 91.064C221.853 88.4613 222.856 85.816 223.88 83.128C224.904 80.3973 225.864 77.816 226.76 75.384C227.656 72.952 228.424 70.776 229.064 68.856C229.747 66.936 230.237 65.464 230.536 64.44C227.848 65.5493 225.544 67.2347 223.624 69.496C221.704 71.7573 220.253 74.5947 219.272 78.008C218.291 77.6667 217.395 77.0693 216.584 76.216C215.773 75.32 215.24 74.2107 214.984 72.888C215.411 70.9253 216.2 69.1333 217.352 67.512C218.547 65.8907 220.04 64.504 221.832 63.352C223.624 62.2 225.693 61.3253 228.04 60.728C230.387 60.088 232.904 59.768 235.592 59.768C239.005 59.768 242.141 60.28 245 61.304C247.859 62.2853 250.312 63.672 252.36 65.464C254.408 67.256 256.008 69.4107 257.16 71.928C258.312 74.4453 258.888 77.24 258.888 80.312C258.888 84.4933 258.12 88.4827 256.584 92.28C255.048 96.0773 252.957 99.4267 250.312 102.328C247.709 105.229 244.68 107.533 241.224 109.24C237.768 110.989 234.141 111.864 230.344 111.864C226.845 111.864 223.837 111.16 221.32 109.752C218.845 108.387 216.989 106.36 215.752 103.672ZM238.344 62.968C236.211 62.968 234.184 63.2667 232.264 63.864C234.141 64.5467 235.699 65.272 236.936 66.04C238.173 66.7653 239.027 67.3413 239.496 67.768C239.155 68.2373 238.643 69.0693 237.96 70.264C237.32 71.4587 236.552 72.9093 235.656 74.616C234.803 76.3227 233.885 78.2 232.904 80.248C231.923 82.2533 230.963 84.3227 230.024 86.456C227.592 91.8747 225.821 96.1413 224.712 99.256C223.645 102.371 223.112 104.525 223.112 105.72C223.709 105.933 224.435 106.083 225.288 106.168C226.141 106.253 227.059 106.296 228.04 106.296C231.496 106.296 234.76 105.507 237.832 103.928C240.947 102.307 243.656 100.152 245.96 97.464C248.307 94.776 250.141 91.6613 251.464 88.12C252.829 84.536 253.512 80.7813 253.512 76.856C253.512 72.4613 252.147 69.048 249.416 66.616C246.685 64.184 242.995 62.968 238.344 62.968ZM283.933 80.504C283.762 83.1493 283.293 85.432 282.525 87.352C281.757 89.2293 280.647 90.8933 279.197 92.344C277.789 93.752 276.061 95.032 274.013 96.184C271.965 97.336 269.575 98.4453 266.845 99.512C266.845 99.768 266.823 100.045 266.781 100.344C266.781 100.6 266.781 100.877 266.781 101.176C266.781 101.731 266.823 102.307 266.909 102.904C266.994 103.501 267.143 104.056 267.357 104.568C267.57 105.08 267.869 105.507 268.253 105.848C268.637 106.147 269.127 106.296 269.725 106.296C270.877 106.296 272.007 106.04 273.117 105.528C274.226 105.016 275.271 104.397 276.253 103.672C277.277 102.904 278.215 102.093 279.069 101.24C279.965 100.344 280.754 99.5333 281.437 98.808C281.863 99.192 282.226 99.5547 282.525 99.896C280.605 102.456 278.493 104.589 276.189 106.296C273.927 107.96 271.773 109.027 269.725 109.496C266.781 109.155 264.477 108.088 262.812 106.296C261.191 104.461 260.381 102.264 260.381 99.704C260.381 97.9547 260.615 96.184 261.085 94.392C261.597 92.5573 262.279 90.808 263.133 89.144C264.029 87.4373 265.053 85.8373 266.205 84.344C267.399 82.8507 268.658 81.5493 269.981 80.44C271.346 79.3307 272.733 78.456 274.141 77.816C275.591 77.176 277.021 76.856 278.429 76.856C280.391 77.112 282.226 78.328 283.933 80.504ZM279.517 82.616C278.365 82.7867 277.17 83.256 275.933 84.024C274.695 84.792 273.522 85.816 272.413 87.096C271.346 88.376 270.365 89.8693 269.469 91.576C268.573 93.2827 267.869 95.1173 267.357 97.08C270.77 95.3733 273.607 93.2827 275.869 90.808C278.13 88.2907 279.346 85.56 279.517 82.616ZM292.699 68.216C290.992 68.216 289.669 67.7467 288.731 66.808C287.835 65.8267 287.387 64.6533 287.387 63.288C287.387 62.9467 287.429 62.5413 287.515 62.072C287.643 61.6027 287.792 61.1973 287.963 60.856C288.517 61.112 289.328 61.304 290.395 61.432C291.504 61.5173 292.784 61.56 294.235 61.56C296.411 61.56 298.864 61.4747 301.595 61.304C304.368 61.0907 307.013 60.8773 309.531 60.664C312.048 60.4507 314.267 60.2587 316.187 60.088C318.107 59.8747 319.344 59.768 319.899 59.768C321.477 59.768 322.608 60.3653 323.291 61.56C324.016 62.712 324.549 64.2693 324.891 66.232C323.781 66.1467 322.672 66.0827 321.563 66.04C320.496 65.9547 319.579 65.912 318.811 65.912C317.445 65.912 316.059 65.9547 314.651 66.04C313.285 66.1253 311.899 66.2533 310.491 66.424C309.893 67.6613 309.232 69.1333 308.507 70.84C307.781 72.504 307.056 74.2533 306.331 76.088C305.648 77.9227 304.987 79.7573 304.347 81.592C303.707 83.384 303.152 85.0053 302.683 86.456C301.744 89.272 300.912 91.8747 300.187 94.264C299.504 96.6533 298.885 98.8933 298.331 100.984C297.819 103.032 297.371 104.995 296.987 106.872C296.603 108.749 296.261 110.584 295.963 112.376C293.104 111.949 290.715 110.157 288.795 107C289.136 105.677 289.541 104.248 290.01 102.712C290.523 101.133 291.099 99.3627 291.739 97.4C292.421 95.3947 293.211 93.1333 294.107 90.616C295.003 88.0987 296.027 85.24 297.179 82.04C297.605 80.8453 298.053 79.608 298.523 78.328C298.992 77.0053 299.44 75.704 299.867 74.424C300.336 73.144 300.741 71.9067 301.083 70.712C301.467 69.5173 301.787 68.4293 302.043 67.448C300.251 67.6613 298.544 67.8533 296.923 68.024C295.344 68.152 293.936 68.216 292.699 68.216ZM317.635 109.24C315.203 108.984 313.262 107.917 311.811 106.04C310.36 104.163 309.635 101.773 309.635 98.872C309.635 97.1653 309.891 95.3947 310.403 93.56C310.915 91.7253 311.64 89.9547 312.579 88.248C313.518 86.4987 314.627 84.856 315.907 83.32C317.187 81.784 318.574 80.4613 320.067 79.352C322.414 77.6027 324.611 76.728 326.659 76.728C328.024 77.4533 329.368 78.968 330.691 81.272C330.904 81.272 331.096 81.272 331.267 81.272C331.438 81.2293 331.63 81.208 331.843 81.208C334.104 81.208 335.235 83.2133 335.235 87.224C335.235 89.912 334.787 92.472 333.891 94.904C333.038 97.2933 331.822 99.4693 330.243 101.432C328.707 103.395 326.851 105.059 324.675 106.424C322.542 107.747 320.195 108.685 317.635 109.24ZM320.899 89.08C320.174 90.0613 319.491 91.128 318.851 92.28C318.211 93.432 317.656 94.6053 317.187 95.8C316.718 96.952 316.355 98.0827 316.099 99.192C315.843 100.259 315.715 101.219 315.715 102.072C315.715 103.096 315.886 104.077 316.227 105.016C316.568 105.955 316.952 106.488 317.379 106.616C319.299 106.189 321.048 105.4 322.627 104.248C324.248 103.053 325.635 101.581 326.787 99.832C327.982 98.0827 328.899 96.0987 329.539 93.88C330.222 91.6613 330.563 89.2933 330.563 86.776C330.563 85.6667 330.499 84.792 330.371 84.152C330.243 83.512 330.03 82.9573 329.731 82.488C327.854 83.0427 326.168 83.9387 324.675 85.176C323.224 86.4133 321.966 87.7147 320.899 89.08ZM360.413 81.528C360.37 82.3387 360.221 83.192 359.965 84.088C359.752 84.9413 359.474 85.7307 359.133 86.456C358.792 87.1387 358.429 87.7147 358.045 88.184C357.661 88.6533 357.298 88.888 356.957 88.888C356.488 88.8453 356.21 88.5253 356.125 87.928C356.125 87.8 356.168 87.608 356.253 87.352C356.381 87.0533 356.509 86.7333 356.637 86.392C356.765 86.0507 356.872 85.7093 356.957 85.368C357.085 85.0267 357.149 84.728 357.149 84.472C357.149 83.8747 357 83.384 356.701 83C356.445 82.5733 356.082 82.36 355.613 82.36C353.906 82.36 352.605 83.4267 351.709 85.56C350.813 87.6933 350.365 90.8293 350.365 94.968C350.365 95.3947 350.386 95.6507 350.429 95.736C351.325 95.6933 352.114 95.672 352.797 95.672C353.522 95.6293 354.226 95.608 354.909 95.608C354.952 95.6933 354.973 95.864 354.973 96.12C354.973 96.504 354.888 96.7813 354.717 96.952C353.736 97.1653 352.946 97.3573 352.349 97.528C351.794 97.656 351.368 97.784 351.069 97.912C350.77 98.04 350.578 98.1893 350.493 98.36C350.45 98.488 350.429 98.68 350.429 98.936C350.429 99.2773 350.429 99.6187 350.429 99.96C350.472 100.301 350.493 100.728 350.493 101.24C350.493 104.824 349.512 107.704 347.549 109.88C345.629 112.056 342.941 113.315 339.485 113.656C338.888 113.613 338.269 113.443 337.629 113.144C336.989 112.845 336.37 112.461 335.773 111.992C335.218 111.523 334.728 110.989 334.301 110.392C333.874 109.837 333.576 109.261 333.405 108.664C333.405 107.043 333.746 105.507 334.429 104.056C335.112 102.563 336.029 101.261 337.181 100.152C338.376 99 339.762 98.0827 341.341 97.4C342.962 96.6747 344.712 96.248 346.589 96.12C346.589 95.0533 346.482 94.008 346.269 92.984C346.056 91.96 345.821 90.9787 345.565 90.04C345.352 89.0587 345.138 88.12 344.925 87.224C344.712 86.2853 344.605 85.368 344.605 84.472C344.605 83.32 344.84 82.1893 345.309 81.08C345.778 79.928 346.397 78.8827 347.165 77.944C347.933 76.9627 348.829 76.1307 349.853 75.448C350.877 74.7653 351.944 74.296 353.053 74.04C353.522 74.168 354.141 74.552 354.909 75.192C355.72 75.7893 356.509 76.472 357.277 77.24C358.045 78.008 358.728 78.7973 359.325 79.608C359.922 80.376 360.285 81.016 360.413 81.528ZM339.293 110.712C340.317 110.285 341.277 109.667 342.173 108.856C343.112 108.045 343.922 107.128 344.605 106.104C345.288 105.08 345.821 103.992 346.205 102.84C346.632 101.688 346.845 100.557 346.845 99.448C345.992 99.576 345.053 99.9813 344.029 100.664C343.005 101.304 342.045 102.093 341.149 103.032C340.253 103.928 339.506 104.867 338.909 105.848C338.312 106.829 338.013 107.683 338.013 108.408C338.013 109.347 338.44 110.115 339.293 110.712ZM360.842 95.736C360.842 93.304 361.333 90.9573 362.314 88.696C363.338 86.392 364.661 84.3653 366.282 82.616C367.946 80.824 369.823 79.3947 371.914 78.328C374.047 77.2187 376.245 76.664 378.506 76.664C380.725 76.664 382.431 77.2187 383.626 78.328C384.821 79.4373 385.418 81.016 385.418 83.064C385.418 84.0453 385.269 85.0053 384.97 85.944C384.714 86.84 384.351 87.6507 383.882 88.376C383.455 89.1013 382.943 89.6987 382.346 90.168C381.749 90.5947 381.151 90.808 380.554 90.808C380.042 90.808 379.509 90.6587 378.954 90.36C378.442 90.0187 378.015 89.592 377.674 89.08C380.533 86.4773 381.962 84.1093 381.962 81.976C381.962 80.7387 381.471 80.12 380.49 80.12C379.637 80.12 378.57 80.5253 377.29 81.336C376.01 82.1467 374.773 83.2133 373.578 84.536C371.743 86.584 370.335 88.8667 369.354 91.384C368.415 93.8587 367.946 96.4613 367.946 99.192C367.946 102.648 368.714 104.717 370.25 105.4C370.89 105.315 371.637 105.123 372.49 104.824C373.343 104.525 374.261 104.141 375.242 103.672C376.223 103.16 377.226 102.584 378.25 101.944C379.317 101.304 380.341 100.621 381.322 99.896C381.493 100.024 381.642 100.216 381.77 100.472C381.898 100.728 381.962 100.963 381.962 101.176C381.237 102.072 380.405 102.947 379.466 103.8C378.527 104.653 377.546 105.443 376.522 106.168C375.498 106.851 374.495 107.427 373.514 107.896C372.575 108.408 371.743 108.728 371.018 108.856C369.61 108.728 368.287 108.28 367.05 107.512C365.813 106.787 364.725 105.827 363.786 104.632C362.89 103.437 362.165 102.072 361.61 100.536C361.098 99 360.842 97.4 360.842 95.736ZM409.413 81.144C409.84 81.144 410.33 81.2293 410.885 81.4C411.482 81.528 412.016 81.72 412.485 81.976C412.954 82.1893 413.338 82.424 413.637 82.68C413.978 82.936 414.149 83.1707 414.149 83.384C413.296 85.176 412.506 86.9893 411.781 88.824C411.056 90.616 410.437 92.344 409.925 94.008C409.413 95.672 409.008 97.2293 408.709 98.68C408.453 100.131 408.325 101.389 408.325 102.456C408.325 103.651 408.453 104.653 408.709 105.464C408.965 106.232 409.392 106.787 409.989 107.128C409.477 107.469 408.816 107.747 408.005 107.96C407.194 108.173 406.469 108.28 405.829 108.28C403.525 108.28 402.373 106.701 402.373 103.544C402.373 101.112 403.184 97.784 404.805 93.56C403.952 95.5227 402.97 97.3787 401.861 99.128C400.752 100.835 399.621 102.349 398.469 103.672C397.317 104.995 396.144 106.083 394.949 106.936C393.797 107.747 392.73 108.237 391.749 108.408C390.17 108.323 388.89 107.576 387.909 106.168C386.928 104.717 386.437 102.883 386.437 100.664C386.437 98.2747 386.949 95.7573 387.973 93.112C388.997 90.4667 390.298 88.0133 391.877 85.752C393.498 83.4907 395.248 81.6133 397.125 80.12C399.002 78.584 400.816 77.7733 402.565 77.688C402.992 77.816 403.461 78.072 403.973 78.456C404.528 78.84 405.04 79.288 405.509 79.8C406.021 80.312 406.448 80.8453 406.789 81.4C407.13 81.912 407.322 82.36 407.365 82.744C405.658 83 403.888 83.832 402.053 85.24C400.261 86.648 398.618 88.3547 397.125 90.36C395.674 92.3227 394.48 94.4347 393.541 96.696C392.602 98.9573 392.133 101.069 392.133 103.032C392.133 103.843 392.432 104.355 393.029 104.568C394.266 104.312 395.696 103.267 397.317 101.432C398.938 99.5547 400.901 96.6747 403.205 92.792C403.632 92.024 404.101 91.1707 404.613 90.232C405.168 89.2933 405.722 88.312 406.277 87.288C406.832 86.264 407.365 85.24 407.877 84.216C408.432 83.1493 408.944 82.1253 409.413 81.144Z" fill="black"/>
<path fill-rule="evenodd" clip-rule="evenodd" d="M90.7405 145.317C125.758 141.331 153 110.612 153 73.3077C153 42.9949 135.012 17.0303 109.481 6.22373C113.703 5.41999 118.054 5 122.5 5C161.988 5 194 38.1309 194 79C194 119.869 161.988 153 122.5 153C111.092 153 100.309 150.235 90.7405 145.317Z" fill="black"/>
<path d="M198 143C217.667 134.333 249.6 120.6 300 123C363 126 388 154 427 143" stroke="#10656B" stroke-width="4" stroke-linecap="round"/>
<circle cx="71" cy="71" r="71" fill="#10656B"/>
</svg>
