<svg width="48" height="48" viewBox="0 0 48 48" fill="none" xmlns="http://www.w3.org/2000/svg">
<path d="M24 4C33.428 4 38.1422 4 41.071 6.92894C44 9.85786 44 14.5719 44 24C44 33.428 44 38.1422 41.071 41.071C38.1422 44 33.428 44 24 44C14.5719 44 9.85786 44 6.92894 41.071C4 38.1422 4 33.428 4 24C4 14.5719 4 9.85786 6.92894 6.92894C9.85786 4 14.5719 4 24 4Z" stroke="#1C274C" stroke-width="3"/>
<path d="M43 34H5" stroke="#1C274C" stroke-width="3" stroke-linecap="round"/>
<path d="M43 14H5" stroke="#1C274C" stroke-width="3" stroke-linecap="round"/>
<path d="M24 4V14M24 44V34" stroke="#1C274C" stroke-width="3" stroke-linecap="round"/>
<path d="M34 5V14M34 43V34" stroke="#1C274C" stroke-width="3" stroke-linecap="round"/>
<path d="M14 5V14M14 43V34" stroke="#1C274C" stroke-width="3" stroke-linecap="round"/>
<path d="M28 24C28 22.9444 26.9408 22.2324 24.8224 20.8086C22.675 19.3654 21.6012 18.6438 20.8006 19.1736C20 19.7035 20 21.1356 20 24C20 26.8644 20 28.2966 20.8006 28.8264C21.6012 29.3562 22.675 28.6346 24.8224 27.1914C26.9408 25.7676 28 25.0556 28 24Z" stroke="#1C274C" stroke-width="3" stroke-linecap="round"/>
</svg>
