<svg width="179" height="179" viewBox="0 0 179 179" fill="none" xmlns="http://www.w3.org/2000/svg">
<path opacity="0.5" d="M164.083 89.5C164.083 130.691 130.691 164.083 89.5 164.083C48.3087 164.083 14.9167 130.691 14.9167 89.5C14.9167 48.3087 48.3087 14.9166 89.5 14.9166C130.691 14.9166 164.083 48.3087 164.083 89.5Z" fill="#20A1AA"/>
<path d="M77.6614 63.3818L78.8838 61.1895C83.6072 52.716 85.9692 48.4791 89.5 48.4791C93.0308 48.4791 95.3928 52.7159 100.116 61.1895L101.339 63.3818C102.68 65.7897 103.352 66.9936 104.398 67.788C105.444 68.5824 106.748 68.8773 109.355 69.467L111.727 70.004C120.9 72.0794 125.486 73.1171 126.578 76.6261C127.669 80.1345 124.542 83.7906 118.289 91.1035L116.671 92.9949C114.894 95.0728 114.006 96.1118 113.606 97.3976C113.206 98.6827 113.341 100.069 113.609 102.841L113.854 105.365C114.799 115.122 115.272 120 112.415 122.168C109.558 124.337 105.265 122.36 96.6764 118.405L94.4546 117.382C92.0135 116.259 90.7933 115.697 89.5 115.697C88.2067 115.697 86.9865 116.259 84.5454 117.382L82.3236 118.405C73.7355 122.36 69.4415 124.337 66.5848 122.168C63.7282 120 64.2009 115.122 65.1463 105.365L65.3909 102.841C65.6595 100.069 65.7938 98.6827 65.3941 97.3976C64.9944 96.1118 64.1059 95.0728 62.329 92.9949L60.7112 91.1035C54.4579 83.7906 51.3313 80.1345 52.4225 76.6261C53.5136 73.1171 58.1 72.0793 67.2724 70.004L69.6455 69.467C72.2521 68.8773 73.5553 68.5824 74.602 67.788C75.6484 66.9936 76.3196 65.7897 77.6614 63.3818Z" fill="#10656B"/>
</svg>
