<svg width="48" height="48" viewBox="0 0 48 48" fill="none" xmlns="http://www.w3.org/2000/svg">
<path d="M39.2942 31.0714H8.70588M39.2942 31.0714V16C39.2942 12.2288 39.2942 10.3431 38.1226 9.17158C36.951 8 35.0654 8 31.2942 8H16.7059C12.9346 8 11.049 8 9.87746 9.17158C8.70588 10.3431 8.70588 12.2288 8.70588 16V31.0714M39.2942 31.0714L42.7822 34.6716C42.8712 34.7636 42.9158 34.8096 42.9574 34.8552C43.5996 35.5604 43.9686 36.4716 43.998 37.4248C44 37.4866 44 37.5506 44 37.6786C44 37.977 44 38.1262 43.992 38.2522C43.865 40.2628 42.2628 41.865 40.2522 41.992C40.1262 42 39.977 42 39.6786 42H8.32136C8.02296 42 7.87376 42 7.74776 41.992C5.7373 41.865 4.13498 40.2628 4.00796 38.2522C4 38.1262 4 37.977 4 37.6786C4 37.5506 4 37.4866 4.00192 37.4248C4.03138 36.4716 4.40044 35.5604 5.04254 34.8552C5.08416 34.8096 5.12876 34.7636 5.21776 34.6716L8.70588 31.0714" stroke="#1C274C" stroke-width="3" stroke-linecap="round"/>
<path d="M19 37H29" stroke="#1C274C" stroke-width="3" stroke-linecap="round"/>
<path d="M25.5 13.5C25.5 14.3284 24.8284 15 24 15C23.1716 15 22.5 14.3284 22.5 13.5C22.5 12.6716 23.1716 12 24 12C24.8284 12 25.5 12.6716 25.5 13.5Z" fill="#1C274C"/>
</svg>
